<svg width="578" height="124" viewBox="0 0 578 124" fill="none" xmlns="http://www.w3.org/2000/svg">
<path d="M39.0725 96.0317C30.8872 96.0317 20.7655 95.2396 8.70762 93.6553V77.9448C23.67 80.2332 33.8796 81.3774 39.3365 81.3774C50.7783 81.3774 56.4992 78.4289 56.4992 72.532V66.9871C56.4992 64.1706 55.6631 62.0143 53.9908 60.5181C52.4066 59.0218 49.5021 58.2737 45.2775 58.2737H35.2439C16.4088 58.2737 6.99135 50.7925 6.99135 35.8301V29.4931C6.99135 22.0119 10.1158 16.511 16.3648 12.9905C22.6138 9.46992 32.5154 7.70964 46.0696 7.70964C53.1107 7.70964 62.0441 8.28173 72.8699 9.42591V24.7403C59.5797 23.1561 50.4263 22.364 45.4095 22.364C38.4564 22.364 33.7916 22.9361 31.4152 24.0802C28.8628 25.3124 27.5866 27.2488 27.5866 29.8892V35.9621C27.5866 40.4509 31.3712 42.6952 38.9404 42.6952H49.2381C59.0076 42.6952 66.0928 44.4995 70.4935 48.1081C74.8942 51.7167 77.0945 57.2175 77.0945 64.6107V70.2876C77.0945 80.4972 73.4419 87.4063 66.1368 91.0149C62.6162 92.8632 58.6996 94.1394 54.3869 94.8435C50.1622 95.6357 45.0574 96.0317 39.0725 96.0317Z" fill="white"/>
<path d="M90.6195 30.8133H109.63V38.6026C111.127 32.5296 117.948 29.4931 130.094 29.4931C138.279 29.4931 144 30.9894 147.256 33.9818C150.601 36.8863 152.273 41.507 152.273 47.844V94.7115H132.998V50.3524C132.998 47.888 132.734 46.0397 132.206 44.8076C131.766 43.5754 130.798 42.6952 129.302 42.1671C127.893 41.639 125.693 41.375 122.701 41.375C118.916 41.375 116.144 41.639 114.383 42.1671C112.623 42.6072 111.435 43.4433 110.819 44.6755C110.203 45.9077 109.895 47.8 109.895 50.3524V94.7115H90.6195V30.8133Z" fill="white"/>
<path d="M187.223 96.0317C181.238 96.0317 176.749 95.5036 173.757 94.4475C170.852 93.3033 168.784 91.323 167.552 88.5065C166.407 85.6021 165.835 81.2894 165.835 75.5685C165.835 70.4636 166.451 66.459 167.684 63.5545C169.004 60.6501 171.072 58.5817 173.889 57.3495C176.793 56.0293 180.754 55.3692 185.771 55.3692H207.422V51.0125C207.422 48.2841 207.026 46.2598 206.234 44.9396C205.53 43.6194 204.165 42.6952 202.141 42.1671C200.205 41.639 197.256 41.375 193.296 41.375C187.839 41.375 180.358 41.9031 170.852 42.9593V30.8133C177.805 29.9332 185.947 29.4931 195.276 29.4931C203.461 29.4931 209.754 30.1092 214.155 31.3414C218.644 32.5736 221.856 34.6859 223.793 37.6784C225.729 40.6709 226.697 45.0276 226.697 50.7485V94.7115H207.818V88.9026C206.322 91.455 204.298 93.2593 201.745 94.3154C199.193 95.4596 194.352 96.0317 187.223 96.0317ZM194.748 84.0178C198.621 84.0178 201.393 83.8858 203.065 83.6217C204.297 83.4457 205.134 83.1817 205.574 82.8296C206.102 82.4776 206.542 81.9055 206.894 81.1133C207.246 80.4972 207.422 79.5731 207.422 78.3409V65.9309H194.22C191.227 65.9309 189.115 66.151 187.883 66.591C186.651 66.9431 185.815 67.7352 185.374 68.9674C184.934 70.1116 184.714 72.1799 184.714 75.1724C184.714 78.0769 184.934 80.1012 185.374 81.2454C185.815 82.3895 186.651 83.1377 187.883 83.4897C189.203 83.8418 191.491 84.0178 194.748 84.0178Z" fill="white"/>
<path d="M243.656 30.8133H261.874V37.1503C263.019 34.3339 265.263 32.3536 268.608 31.2094C271.952 30.0652 276.925 29.4931 283.526 29.4931C289.071 29.4931 293.516 29.9332 296.86 30.8133C300.293 31.6935 302.889 33.1017 304.649 35.038C306.322 36.9743 307.466 39.1306 308.082 41.507C308.698 43.7954 309.006 46.9639 309.006 51.0125V72.0039C309.006 78.3409 308.082 83.2257 306.234 86.6582C304.385 90.0908 301.525 92.5112 297.652 93.9194C293.868 95.3276 288.675 96.0317 282.074 96.0317C275.737 96.0317 271.16 95.5036 268.344 94.4475C265.527 93.3913 263.723 91.323 262.931 88.2425V122.172H243.656V30.8133ZM276.133 84.0178C279.917 84.0178 282.778 83.7538 284.714 83.2257C286.65 82.6976 287.971 81.7735 288.675 80.4532C289.379 79.133 289.731 77.1527 289.731 74.5123V50.8805C289.731 47.9761 289.423 45.9077 288.807 44.6755C288.191 43.3553 286.958 42.4752 285.11 42.0351C283.262 41.595 280.225 41.375 276.001 41.375C272.392 41.375 269.62 41.6831 267.683 42.2992C265.835 42.9153 264.559 43.8834 263.855 45.2036C263.239 46.5238 262.931 48.4161 262.931 50.8805V74.5123C262.931 77.1527 263.239 79.133 263.855 80.4532C264.559 81.7735 265.835 82.6976 267.683 83.2257C269.532 83.7538 272.348 84.0178 276.133 84.0178Z" fill="white"/>
<path d="M352.622 96.0317C344.437 96.0317 334.316 95.2396 322.258 93.6553V77.9448C337.22 80.2332 347.43 81.3774 352.886 81.3774C364.328 81.3774 370.049 78.4289 370.049 72.532V66.9871C370.049 64.1706 369.213 62.0143 367.541 60.5181C365.957 59.0218 363.052 58.2737 358.827 58.2737H348.794C329.959 58.2737 320.541 50.7925 320.541 35.8301V29.4931C320.541 22.0119 323.666 16.511 329.915 12.9905C336.164 9.46992 346.065 7.70964 359.62 7.70964C366.661 7.70964 375.594 8.28173 386.42 9.42591V24.7403C373.13 23.1561 363.976 22.364 358.959 22.364C352.006 22.364 347.342 22.9361 344.965 24.0802C342.413 25.3124 341.137 27.2488 341.137 29.8892V35.9621C341.137 40.4509 344.921 42.6952 352.49 42.6952H362.788C372.558 42.6952 379.643 44.4995 384.043 48.1081C388.444 51.7167 390.645 57.2175 390.645 64.6107V70.2876C390.645 80.4972 386.992 87.4063 379.687 91.0149C376.166 92.8632 372.25 94.1394 367.937 94.8435C363.712 95.6357 358.607 96.0317 352.622 96.0317Z" fill="white"/>
<path d="M434.798 96.0317C430.838 96.0317 427.581 95.8997 425.029 95.6357C422.476 95.3716 419.748 94.8435 416.843 94.0514C413.675 93.1713 411.123 91.9391 409.186 90.3548C407.25 88.6825 405.622 86.3502 404.301 83.3577C402.981 80.4532 402.321 76.9327 402.321 72.796V53.917C402.321 49.6923 402.981 45.9957 404.301 42.8272C405.622 39.6587 407.338 37.1943 409.45 35.4341C411.299 33.9378 413.719 32.7056 416.711 31.7375C419.792 30.6813 422.784 30.0212 425.689 29.7572C429.033 29.5811 432.07 29.4931 434.798 29.4931C438.847 29.4931 442.059 29.6251 444.436 29.8892C446.9 30.0652 449.585 30.5933 452.489 31.4734C455.658 32.4416 458.21 33.7618 460.146 35.4341C462.171 37.1063 463.887 39.4827 465.295 42.5632C466.615 45.7317 467.276 49.5163 467.276 53.917V72.796C467.276 76.7566 466.615 80.2332 465.295 83.2257C464.063 86.2182 462.435 88.5505 460.41 90.2228C458.65 91.719 456.23 92.9512 453.149 93.9194C450.157 94.7995 447.208 95.3716 444.304 95.6357C441.663 95.8997 438.495 96.0317 434.798 96.0317ZM434.798 84.0178C438.407 84.0178 441.135 83.7538 442.984 83.2257C444.832 82.6096 446.108 81.6854 446.812 80.4532C447.604 79.221 448 77.4168 448 75.0404V50.8805C448 47.36 447.076 44.8956 445.228 43.4873C443.38 42.0791 439.903 41.375 434.798 41.375C429.694 41.375 426.217 42.0791 424.369 43.4873C422.52 44.8956 421.596 47.36 421.596 50.8805V75.0404C421.596 77.4168 421.948 79.221 422.652 80.4532C423.445 81.6854 424.765 82.6096 426.613 83.2257C428.461 83.7538 431.19 84.0178 434.798 84.0178Z" fill="white"/>
<path d="M487.184 42.6952H475.17V30.8133H487.184V21.1758C487.184 15.983 488.02 11.9343 489.692 9.02984C491.453 6.03737 494.093 3.96904 497.614 2.82486C501.222 1.59266 506.019 0.976562 512.004 0.976562C515.26 0.976562 520.057 1.32862 526.394 2.03273V13.9146C520.761 13.2105 516.977 12.8585 515.04 12.8585C511.784 12.8585 509.539 13.3865 508.307 14.4427C507.075 15.4109 506.459 17.3032 506.459 20.1196V30.8133H524.018V42.6952H506.459V94.7115H487.184V42.6952Z" fill="white"/>
<path d="M565.432 96.0317C562.176 96.0317 559.447 95.8997 557.247 95.6357C555.046 95.3716 552.846 94.8435 550.646 94.0514C548.181 93.2593 546.157 92.1591 544.573 90.7509C543.077 89.3427 541.844 87.4063 540.876 84.9419C539.82 82.3895 539.292 79.4411 539.292 76.0965V42.6952H524.018V30.8133H539.292V12.3304H558.567V30.8133H576.126V42.6952H558.567V72.796C558.567 75.8765 558.831 78.2089 559.359 79.7931C559.887 81.2894 560.899 82.3895 562.396 83.0937C563.892 83.7098 566.18 84.0178 569.261 84.0178C570.493 84.0178 572.781 83.7978 576.126 83.3577V95.3716C571.989 95.8117 568.425 96.0317 565.432 96.0317Z" fill="white"/>
<rect x="0.418457" y="110.522" width="226.322" height="12.5734" fill="#29DEB5"/>
<rect x="280.177" y="110.429" width="297.047" height="12.5734" fill="#29DEB5"/>
</svg>
